<?xml version="1.0" standalone="no"?>
<!DOCTYPE svg PUBLIC "-//W3C//DTD SVG 20010904//EN"
 "http://www.w3.org/TR/2001/REC-SVG-20010904/DTD/svg10.dtd">
<svg version="1.0" xmlns="http://www.w3.org/2000/svg"
 width="2048.000000pt" height="2048.000000pt" viewBox="0 0 2048.000000 2048.000000"
 preserveAspectRatio="xMidYMid meet">

<g transform="translate(0.000000,2048.000000) scale(0.100000,-0.100000)"
fill="#000000" stroke="none">
<path d="M9750 20383 c-1464 -78 -2814 -434 -4088 -1078 -1342 -678 -2524
-1654 -3454 -2853 -741 -954 -1322 -2071 -1673 -3217 -232 -758 -357 -1428
-427 -2290 -18 -219 -18 -1191 0 -1410 23 -280 51 -542 83 -759 339 -2355
1505 -4520 3294 -6117 1645 -1467 3718 -2358 5910 -2538 387 -32 1025 -42
1391 -21 1269 72 2435 352 3570 855 2750 1220 4836 3622 5654 6510 190 672
302 1312 362 2075 18 224 18 1176 0 1400 -39 500 -96 912 -183 1340 -498 2434
-1874 4599 -3874 6096 -1606 1203 -3506 1892 -5525 2004 -163 9 -891 11 -1040
3z m2705 -4141 c733 -40 983 -71 1360 -173 627 -170 1135 -476 1553 -938 454
-502 722 -1133 821 -1931 65 -520 86 -1473 77 -3405 -8 -1942 -32 -2404 -148
-2940 -171 -790 -564 -1432 -1163 -1898 -370 -288 -842 -498 -1361 -606 -587
-122 -1207 -146 -3666 -138 -1596 5 -1933 11 -2388 47 -850 67 -1525 305
-2040 718 -373 301 -647 634 -844 1028 -209 419 -331 875 -386 1444 -45 464
-64 1553 -57 3220 6 1214 11 1494 37 2045 36 744 156 1252 417 1766 150 296
309 514 558 764 263 265 475 419 785 574 439 218 898 339 1480 390 117 11 700
39 910 44 327 9 3865 -1 4055 -11z"/>
<path d="M8570 15173 c-268 -4 -889 -33 -1040 -49 -695 -71 -1161 -264 -1534
-638 -236 -236 -384 -479 -495 -814 -111 -332 -149 -603 -178 -1267 -15 -346
-18 -639 -18 -2165 0 -1526 3 -1819 18 -2165 29 -664 67 -935 178 -1267 112
-337 260 -580 497 -816 286 -284 604 -453 1062 -561 256 -61 473 -84 1026
-108 330 -15 651 -17 2129 -18 1713 0 2034 4 2540 36 511 31 905 124 1240 291
292 146 594 425 773 714 214 346 334 790 371 1379 31 489 36 832 36 2515 0
1685 -5 2011 -36 2515 -50 804 -245 1321 -654 1730 -234 235 -478 383 -813
494 -525 175 -1021 202 -3592 199 -745 -2 -1425 -4 -1510 -5z m5085 -1024
c249 -77 418 -247 496 -499 34 -107 34 -283 0 -390 -79 -256 -267 -439 -521
-507 -87 -23 -262 -23 -350 0 -256 67 -458 269 -527 527 -23 87 -23 262 0 350
73 277 302 489 585 540 77 14 238 4 317 -21z m-2970 -849 c1239 -183 2245
-1088 2550 -2294 74 -291 90 -432 89 -771 0 -325 -14 -451 -79 -720 -270
-1125 -1155 -2010 -2280 -2280 -272 -66 -395 -79 -725 -79 -256 0 -314 3 -440
22 -349 55 -636 145 -940 296 -815 406 -1406 1147 -1624 2034 -64 260 -81 411
-81 732 0 250 3 304 24 440 103 678 399 1269 876 1745 511 511 1162 819 1891
894 160 17 570 6 739 -19z"/>
<path d="M10067 12239 c-291 -24 -617 -130 -866 -283 -406 -248 -714 -632
-861 -1074 -264 -793 -20 -1653 620 -2187 460 -384 1095 -542 1683 -420 702
145 1272 651 1498 1327 264 787 18 1650 -622 2183 -311 260 -711 422 -1123
455 -142 11 -185 11 -329 -1z"/>
</g>
</svg>
